<?xml version="1.0" encoding="UTF-8" standalone="no"?>
<!-- Created with Inkscape (http://www.inkscape.org/) -->

<svg
   width="1000"
   height="1000"
   viewBox="0 0 264.58333 264.58334"
   version="1.1"
   id="svg821"
   inkscape:version="1.3 (0e150ed6c4, 2023-07-21)"
   sodipodi:docname="Bigger is better logo v0.11.svg"
   xml:space="preserve"
   inkscape:export-filename="bigCard.png"
   inkscape:export-xdpi="96"
   inkscape:export-ydpi="96"
   xmlns:inkscape="http://www.inkscape.org/namespaces/inkscape"
   xmlns:sodipodi="http://sodipodi.sourceforge.net/DTD/sodipodi-0.dtd"
   xmlns:xlink="http://www.w3.org/1999/xlink"
   xmlns="http://www.w3.org/2000/svg"
   xmlns:svg="http://www.w3.org/2000/svg"
   xmlns:rdf="http://www.w3.org/1999/02/22-rdf-syntax-ns#"
   xmlns:cc="http://creativecommons.org/ns#"
   xmlns:dc="http://purl.org/dc/elements/1.1/"><defs
     id="defs815"><rect
       x="0"
       y="0"
       width="1000"
       height="1000"
       id="rect9" /><pattern
       inkscape:collect="always"
       xlink:href="#pattern6"
       preserveAspectRatio="xMidYMid"
       id="pattern9"
       patternTransform="matrix(0.11,0,0,0.11,-28.865179,5.345258)"
       x="0"
       y="0" /><pattern
       inkscape:collect="always"
       xlink:href="#pattern6"
       preserveAspectRatio="xMidYMid"
       id="pattern7"
       patternTransform="matrix(0.26458333,0,0,0.26458333,73.766379,-74.835498)" /><pattern
       patternUnits="userSpaceOnUse"
       width="999.99999"
       height="1000"
       patternTransform="translate(-6.9394589e-5,-1.3255811e-4)"
       preserveAspectRatio="xMidYMid"
       id="pattern6"
       style="fill:#000000"
       inkscape:label="pattern6"><g
         id="g5"
         transform="matrix(29.073283,0,0,29.072996,-5752.7462,-4629.2251)"><path
           style="fill:#64514c"
           d="m 197.87054,193.62384 v -34.39618 h 34.39584 v 34.39618 z"
           id="path6"
           sodipodi:nodetypes="ccccc" /><path
           style="fill:#3d3230"
           d="m 197.87054,190.91648 v -2.70702 l 2.64584,2.63591 2.64583,2.6359 v 0.0711 0.0711 h -2.64583 -2.64584 z m 14.48755,-0.003 2.71037,-2.71037 2.71037,2.71037 2.71036,2.71036 h -5.42073 -5.42073 z m 10.18094,-1.59294 -4.29738,-4.30331 2.71665,-2.7074 2.71664,-2.70739 4.29572,4.30164 4.29572,4.30165 v 2.70905 2.70906 h -2.71499 -2.71499 z m -18.78286,-1.58481 -2.70798,-2.71723 7.01026,-7.00652 7.01027,-7.00653 2.71073,2.71074 2.71074,2.71073 -7.01302,7.01302 -7.01302,7.01302 z m -5.88563,-11.18114 v -5.55864 l 4.30331,-4.29737 4.3033,-4.29738 2.77163,2.78109 2.77162,2.78109 -7.07493,7.07492 -7.07493,7.07493 z m 31.61604,2.51549 -2.63758,-2.64751 2.70869,-2.70869 2.70869,-2.70868 v 5.35619 5.3562 h -0.0711 -0.0711 z m -12.83194,-12.83193 -7.00639,-7.01014 h 5.42509 5.42509 l 4.29738,4.30331 4.29738,4.3033 -2.71608,2.70683 -2.71608,2.70684 z m -18.7841,-4.36431 v -2.64583 h 2.70702 2.70701 l -2.6359,2.64583 -2.63591,2.64584 h -0.0711 -0.0711 z m 31.61771,0 -2.6359,-2.64583 h 2.70701 2.70702 v 2.64583 2.64584 h -0.0711 -0.0711 z"
           id="path5" /></g></pattern></defs><sodipodi:namedview
     id="base"
     pagecolor="#ffffff"
     bordercolor="#666666"
     borderopacity="1.0"
     inkscape:pageopacity="0.0"
     inkscape:pageshadow="2"
     inkscape:zoom="0.35"
     inkscape:cx="255.71428"
     inkscape:cy="527.14285"
     inkscape:document-units="px"
     inkscape:current-layer="layer3"
     showgrid="false"
     inkscape:window-width="1920"
     inkscape:window-height="1017"
     inkscape:window-x="1592"
     inkscape:window-y="-8"
     inkscape:window-maximized="1"
     units="px"
     inkscape:pagecheckerboard="true"
     borderlayer="false"
     inkscape:showpageshadow="2"
     inkscape:deskcolor="#d1d1d1"
     showguides="true" /><metadata
     id="metadata818"><rdf:RDF><cc:Work
         rdf:about=""><dc:format>image/svg+xml</dc:format><dc:type
           rdf:resource="http://purl.org/dc/dcmitype/StillImage" /></cc:Work></rdf:RDF></metadata><g
     inkscape:groupmode="layer"
     id="layer4"
     inkscape:label="Background"><rect
       style="font-variation-settings:normal;opacity:1;vector-effect:none;fill:url(#pattern9);fill-opacity:1;fill-rule:evenodd;stroke:none;stroke-width:1.32292;stroke-linecap:square;stroke-linejoin:miter;stroke-miterlimit:4;stroke-dasharray:none;stroke-dashoffset:0;stroke-opacity:1;-inkscape-stroke:none;stop-color:#000000;stop-opacity:1"
       id="rect7"
       width="264.58334"
       height="264.58334"
       x="0"
       y="32.416649"
       transform="translate(0,-32.41665)"
       inkscape:label="Background" /><rect
       style="fill:url(#pattern7);stroke:none;stroke-width:0.264583"
       width="264.58334"
       height="264.58334"
       x="-285.57898"
       y="0.12966478"
       id="rect6"
       inkscape:label="Pattern" /></g><g
     inkscape:label="People"
     inkscape:groupmode="layer"
     id="layer1"
     transform="translate(0,-32.41665)"
     style="display:inline"><path
       d="m 213.69155,12.575215 c 28.40223,0 51.42679,23.024968 51.42679,51.42724 0,28.40211 -23.02456,51.426625 -51.42679,51.426625 -28.40224,0 -51.42674,-23.024515 -51.42674,-51.426625 0,-28.402272 23.0245,-51.42724 51.42674,-51.42724 m 0,102.853865 c 56.82682,0 77.14038,48.72696 77.14038,77.14036 0,0 2.63854,19.1109 -6.4283,27.19181 -9.0683,8.08089 -132.41757,7.03181 -141.42419,0 -9.00611,-7.03132 -6.42829,-27.19181 -6.42829,-27.19181 0,-28.4134 20.31357,-77.14036 77.1404,-77.14036 z"
       id="path3"
       sodipodi:nodetypes="cssscsszzss"
       style="opacity:1;fill:#a1b842;fill-opacity:1;stroke-width:12.8568"
       inkscape:label="Biggest" /><path
       d="m 132.28489,71.641689 c 24.83602,0 44.96959,20.133922 44.96959,44.969981 0,24.83601 -20.13357,44.96954 -44.96959,44.96954 -24.83603,0 -44.96955,-20.13353 -44.96955,-44.96954 0,-24.836059 20.13352,-44.969981 44.96955,-44.969981 m 0,89.939521 c 49.6916,0 67.45456,42.60875 67.45456,67.45453 0,0 2.30725,16.71132 -5.62115,23.77758 -7.92968,7.06624 -115.791082,6.14888 -123.66681,0 -7.875281,-6.14847 -5.621135,-23.77758 -5.621135,-23.77758 0,-24.84578 17.762958,-67.45453 67.454535,-67.45453 z"
       id="path2"
       sodipodi:nodetypes="cssscsszzss"
       style="opacity:1;fill:#383838;fill-opacity:1;stroke-width:11.2424"
       inkscape:label="Bigger" /><path
       d="m 61.297417,158.49194 c 16.65029,0 30.14802,13.49797 30.14802,30.14829 0,16.65029 -13.49773,30.14799 -30.14802,30.14799 -16.65029,0 -30.14799,-13.4977 -30.14799,-30.14799 0,-16.65032 13.4977,-30.14829 30.14799,-30.14829 m 0,60.29628 c 33.3137,0 45.222153,28.5653 45.222153,45.22214 0,0 1.5468,11.20342 -3.76847,15.94071 -5.316132,4.73727 -77.627392,4.12226 -82.907352,0 -5.27966,-4.12199 -3.76846,-15.94071 -3.76846,-15.94071 0,-16.65684 11.908449,-45.22214 45.222129,-45.22214 z"
       id="path1"
       sodipodi:nodetypes="cssscsszzss"
       style="opacity:1;fill:#7e7e7e;fill-opacity:1;stroke-width:7.537"
       inkscape:label="Big" /></g><g
     inkscape:groupmode="layer"
     id="layer3"
     inkscape:label="Text"><text
       xml:space="preserve"
       transform="matrix(0.26458333,0,0,0.26458333,-0.7559524,18.89881)"
       id="text9"
       style="font-weight:bold;font-size:250px;line-height:1;font-family:'Atkinson Hyperlegible';-inkscape-font-specification:'Atkinson Hyperlegible Bold';text-align:center;white-space:pre;shape-inside:url(#rect9);display:inline;fill:#ffffff;fill-opacity:1;stroke:#000000;stroke-width:8;stroke-linecap:round;stroke-linejoin:round;stroke-dasharray:none;stroke-opacity:1"
       inkscape:label="Bigger is better"><tspan
         x="113.25002"
         y="190.06686"
         id="tspan1">Bigger </tspan><tspan
         x="393.87488"
         y="440.06686"
         id="tspan2">is </tspan><tspan
         x="136.37519"
         y="690.06686"
         id="tspan3">Better</tspan></text><text
       xml:space="preserve"
       style="font-weight:bold;font-size:39.6875px;line-height:1;font-family:'Atkinson Hyperlegible';-inkscape-font-specification:'Atkinson Hyperlegible Bold';text-align:center;text-anchor:middle;display:inline;fill:#ffffff;fill-opacity:1;stroke:#000000;stroke-width:2.11667;stroke-linecap:round;stroke-linejoin:round;stroke-dasharray:none;stroke-opacity:1"
       x="204.95288"
       y="282.23624"
       id="text10"
       transform="translate(0,-32.41665)"
       inkscape:label="Version"><tspan
         sodipodi:role="line"
         id="tspan10"
         x="0"
         y="0"
         style="font-size:39.6875px;stroke-width:2.11667">V0.11</tspan></text></g></svg>
